<svg width="279" height="38" viewBox="0 0 279 38" fill="none" xmlns="http://www.w3.org/2000/svg">
<g filter="url(#filter0_dd_21_27141)">
<g clip-path="url(#clip0_21_27141)">
<rect x="24" y="2" width="32.2254" height="32" rx="8" fill="white"/>
<rect x="24" y="2" width="32.2254" height="32" rx="8" fill="url(#paint0_linear_21_27141)"/>
<path fill-rule="evenodd" clip-rule="evenodd" d="M40.1127 4.03885C32.3478 4.03885 26.0532 10.2895 26.0532 18C26.0532 25.7106 32.3478 31.9612 40.1127 31.9612C47.8775 31.9612 54.1722 25.7106 54.1722 18C54.1722 10.2895 47.8775 4.03885 40.1127 4.03885ZM25.975 18C25.975 10.2466 32.3046 3.96118 40.1127 3.96118C47.9207 3.96118 54.2504 10.2466 54.2504 18C54.2504 25.7535 47.9207 32.0389 40.1127 32.0389C32.3046 32.0389 25.975 25.7535 25.975 18Z" fill="#D0D5DD"/>
<path fill-rule="evenodd" clip-rule="evenodd" d="M40.1127 14.0779C37.9312 14.0779 36.1628 15.834 36.1628 18.0002C36.1628 20.1665 37.9312 21.9226 40.1127 21.9226C42.2942 21.9226 44.0627 20.1665 44.0627 18.0002C44.0627 15.834 42.2942 14.0779 40.1127 14.0779ZM36.0845 18.0002C36.0845 15.7911 37.888 14.0002 40.1127 14.0002C42.3374 14.0002 44.1409 15.7911 44.1409 18.0002C44.1409 20.2094 42.3374 22.0002 40.1127 22.0002C37.888 22.0002 36.0845 20.2094 36.0845 18.0002Z" fill="#D0D5DD"/>
<path fill-rule="evenodd" clip-rule="evenodd" d="M40.1127 15.3201C38.6223 15.3201 37.4142 16.5198 37.4142 17.9997C37.4142 19.4796 38.6223 20.6793 40.1127 20.6793C41.603 20.6793 42.8111 19.4796 42.8111 17.9997C42.8111 16.5198 41.603 15.3201 40.1127 15.3201ZM37.336 17.9997C37.336 16.4769 38.5791 15.2424 40.1127 15.2424C41.6462 15.2424 42.8894 16.4769 42.8894 17.9997C42.8894 19.5225 41.6462 20.757 40.1127 20.757C38.5791 20.757 37.336 19.5225 37.336 17.9997Z" fill="#D0D5DD"/>
<path d="M40.0735 2H40.1518V34H40.0735V2Z" fill="#D0D5DD"/>
<path d="M56.2253 17.9609L56.2253 18.0386L24 18.0386L24 17.9609L56.2253 17.9609Z" fill="#D0D5DD"/>
<path d="M50.7893 2H50.8675V34H50.7893V2Z" fill="#D0D5DD"/>
<path d="M34.7157 2H34.7939V34H34.7157V2Z" fill="#D0D5DD"/>
<path d="M45.4314 2H45.5096V34H45.4314V2Z" fill="#D0D5DD"/>
<path d="M29.3578 2H29.4361V34H29.3578V2Z" fill="#D0D5DD"/>
<path d="M56.2253 28.6016L56.2253 28.6792L24 28.6792L24 28.6016L56.2253 28.6016Z" fill="#D0D5DD"/>
<path d="M56.2253 12.6406L56.2253 12.7183L24 12.7183L24 12.6406L56.2253 12.6406Z" fill="#D0D5DD"/>
<path d="M56.2253 23.2812L56.2253 23.3589L24 23.3589L24 23.2812L56.2253 23.2812Z" fill="#D0D5DD"/>
<path d="M56.2253 7.32031L56.2253 7.39798L24 7.39798L24 7.32031L56.2253 7.32031Z" fill="#D0D5DD"/>
<g filter="url(#filter1_dd_21_27141)">
<ellipse cx="40.1127" cy="18" rx="8.05634" ry="8" fill="url(#paint1_linear_21_27141)"/>
</g>
<g filter="url(#filter2_b_21_27141)">
<path d="M24 18H56.2254V21.2C56.2254 25.6804 56.2254 27.9206 55.3534 29.6319C54.5864 31.1372 53.3626 32.3611 51.8573 33.1281C50.146 34 47.9058 34 43.4254 34H36.8C32.3196 34 30.0794 34 28.3681 33.1281C26.8628 32.3611 25.6389 31.1372 24.8719 29.6319C24 27.9206 24 25.6804 24 21.2V18Z" fill="white" fill-opacity="0.2"/>
</g>
</g>
<rect x="24.1" y="2.1" width="32.0254" height="31.8" rx="7.9" stroke="#D0D5DD" stroke-width="0.2"/>
</g>
<path d="M75.7153 10.4535V19.8427C75.7153 21.8171 74.3421 23.2376 72.1106 23.2376C69.8862 23.2376 68.5058 21.8171 68.5058 19.8427V10.4535H66.2958V20.0202C66.2958 23.0742 68.5988 25.2404 72.1106 25.2404C75.6224 25.2404 77.9326 23.0742 77.9326 20.0202V10.4535H75.7153Z" fill="#101828"/>
<path d="M83.1126 18.5217C83.1126 16.7816 84.1854 15.7873 85.6731 15.7873C87.125 15.7873 88.0048 16.7319 88.0048 18.3157V24.9989H90.1433V18.06C90.1433 15.3612 88.6485 13.9478 86.4026 13.9478C84.7505 13.9478 83.6705 14.7077 83.1627 15.8654H83.0268V14.0898H80.9741V24.9989H83.1126V18.5217Z" fill="#101828"/>
<path d="M98.1396 14.0898H95.8866V11.4762H93.748V14.0898H92.1388V15.7944H93.748V22.2362C93.7409 24.2177 95.2643 25.1765 96.9523 25.141C97.6317 25.1339 98.0895 25.006 98.3398 24.9137L97.9536 23.1594C97.8106 23.1879 97.5459 23.2518 97.2026 23.2518C96.5088 23.2518 95.8866 23.0245 95.8866 21.7958V15.7944H98.1396V14.0898Z" fill="#101828"/>
<path d="M100.505 24.9989H102.644V14.0898H100.505V24.9989ZM101.585 12.4066C102.322 12.4066 102.937 11.8384 102.937 11.1424C102.937 10.4464 102.322 9.87109 101.585 9.87109C100.841 9.87109 100.233 10.4464 100.233 11.1424C100.233 11.8384 100.841 12.4066 101.585 12.4066Z" fill="#101828"/>
<path d="M110.649 14.0898H108.396V11.4762H106.257V14.0898H104.648V15.7944H106.257V22.2362C106.25 24.2177 107.774 25.1765 109.462 25.141C110.141 25.1339 110.599 25.006 110.849 24.9137L110.463 23.1594C110.32 23.1879 110.055 23.2518 109.712 23.2518C109.018 23.2518 108.396 23.0245 108.396 21.7958V15.7944H110.649V14.0898Z" fill="#101828"/>
<path d="M115.389 10.4535H113.251V24.9989H115.389V10.4535Z" fill="#101828"/>
<path d="M123.001 25.2191C125.397 25.2191 127.092 24.0472 127.578 22.2717L125.554 21.9094C125.168 22.9393 124.238 23.4648 123.022 23.4648C121.191 23.4648 119.961 22.2859 119.904 20.1836H127.714V19.4308C127.714 15.489 125.34 13.9478 122.851 13.9478C119.79 13.9478 117.773 16.2631 117.773 19.6154C117.773 23.0032 119.761 25.2191 123.001 25.2191ZM119.911 18.5927C119.997 17.0444 121.127 15.7021 122.865 15.7021C124.524 15.7021 125.611 16.9237 125.619 18.5927H119.911Z" fill="#101828"/>
<path d="M134.2 25.212C136.202 25.212 136.989 23.9975 137.375 23.3015H137.554V24.9989H139.642V10.4535H137.504V15.8583H137.375C136.989 15.1836 136.259 13.9478 134.214 13.9478C131.56 13.9478 129.608 16.0288 129.608 19.5657C129.608 23.0955 131.532 25.212 134.2 25.212ZM134.672 23.4009C132.762 23.4009 131.768 21.7319 131.768 19.5444C131.768 17.3782 132.741 15.7518 134.672 15.7518C136.538 15.7518 137.54 17.2646 137.54 19.5444C137.54 21.8384 136.517 23.4009 134.672 23.4009Z" fill="#101828"/>
<path d="M157.616 10.4535V19.8427C157.616 21.8171 156.243 23.2376 154.011 23.2376C151.787 23.2376 150.407 21.8171 150.407 19.8427V10.4535H148.197V20.0202C148.197 23.0742 150.5 25.2404 154.011 25.2404C157.523 25.2404 159.833 23.0742 159.833 20.0202V10.4535H157.616Z" fill="#101828"/>
<path d="M165.257 10.4535H163.047V24.9989H165.257V10.4535Z" fill="#101828"/>
<defs>
<filter id="filter0_dd_21_27141" x="21" y="0" width="38.2253" height="38" filterUnits="userSpaceOnUse" color-interpolation-filters="sRGB">
<feFlood flood-opacity="0" result="BackgroundImageFix"/>
<feColorMatrix in="SourceAlpha" type="matrix" values="0 0 0 0 0 0 0 0 0 0 0 0 0 0 0 0 0 0 127 0" result="hardAlpha"/>
<feOffset dy="1"/>
<feGaussianBlur stdDeviation="1"/>
<feColorMatrix type="matrix" values="0 0 0 0 0.0627451 0 0 0 0 0.0941176 0 0 0 0 0.156863 0 0 0 0.06 0"/>
<feBlend mode="normal" in2="BackgroundImageFix" result="effect1_dropShadow_21_27141"/>
<feColorMatrix in="SourceAlpha" type="matrix" values="0 0 0 0 0 0 0 0 0 0 0 0 0 0 0 0 0 0 127 0" result="hardAlpha"/>
<feOffset dy="1"/>
<feGaussianBlur stdDeviation="1.5"/>
<feColorMatrix type="matrix" values="0 0 0 0 0.0627451 0 0 0 0 0.0941176 0 0 0 0 0.156863 0 0 0 0.1 0"/>
<feBlend mode="normal" in2="effect1_dropShadow_21_27141" result="effect2_dropShadow_21_27141"/>
<feBlend mode="normal" in="SourceGraphic" in2="effect2_dropShadow_21_27141" result="shape"/>
</filter>
<filter id="filter1_dd_21_27141" x="29.0563" y="8" width="22.1127" height="22" filterUnits="userSpaceOnUse" color-interpolation-filters="sRGB">
<feFlood flood-opacity="0" result="BackgroundImageFix"/>
<feColorMatrix in="SourceAlpha" type="matrix" values="0 0 0 0 0 0 0 0 0 0 0 0 0 0 0 0 0 0 127 0" result="hardAlpha"/>
<feOffset dy="1"/>
<feGaussianBlur stdDeviation="1"/>
<feColorMatrix type="matrix" values="0 0 0 0 0.0627451 0 0 0 0 0.0941176 0 0 0 0 0.156863 0 0 0 0.06 0"/>
<feBlend mode="normal" in2="BackgroundImageFix" result="effect1_dropShadow_21_27141"/>
<feColorMatrix in="SourceAlpha" type="matrix" values="0 0 0 0 0 0 0 0 0 0 0 0 0 0 0 0 0 0 127 0" result="hardAlpha"/>
<feOffset dy="1"/>
<feGaussianBlur stdDeviation="1.5"/>
<feColorMatrix type="matrix" values="0 0 0 0 0.0627451 0 0 0 0 0.0941176 0 0 0 0 0.156863 0 0 0 0.1 0"/>
<feBlend mode="normal" in2="effect1_dropShadow_21_27141" result="effect2_dropShadow_21_27141"/>
<feBlend mode="normal" in="SourceGraphic" in2="effect2_dropShadow_21_27141" result="shape"/>
</filter>
<filter id="filter2_b_21_27141" x="19" y="13" width="42.2253" height="26" filterUnits="userSpaceOnUse" color-interpolation-filters="sRGB">
<feFlood flood-opacity="0" result="BackgroundImageFix"/>
<feGaussianBlur in="BackgroundImageFix" stdDeviation="2.5"/>
<feComposite in2="SourceAlpha" operator="in" result="effect1_backgroundBlur_21_27141"/>
<feBlend mode="normal" in="SourceGraphic" in2="effect1_backgroundBlur_21_27141" result="shape"/>
</filter>
<linearGradient id="paint0_linear_21_27141" x1="40.1127" y1="2" x2="40.1127" y2="34" gradientUnits="userSpaceOnUse">
<stop stop-color="white"/>
<stop offset="1" stop-color="#D0D5DD"/>
</linearGradient>
<linearGradient id="paint1_linear_21_27141" x1="36.0845" y1="26" x2="44.0508" y2="9.95528" gradientUnits="userSpaceOnUse">
<stop stop-color="#53389E"/>
<stop offset="1" stop-color="#6941C6"/>
</linearGradient>
<clipPath id="clip0_21_27141">
<rect x="24" y="2" width="32.2254" height="32" rx="8" fill="white"/>
</clipPath>
</defs>
</svg>
